# xmcd
#
# Track frame offsets:
#	150
#	10981
#	21996
#	32956
#	43918
#	53952
#	64728
#	75381
#	86108
#	95325
#
# Disc length: 1436 seconds
#
# Revision: 1
# Processed by: cddbd v1.5.2PL0 Copyright (c) Steve Scherf et al.
# Submitted via: audiograbber 1.83.01
#
DISCID=7e059a0a
DTITLE=Georhe Jones and Gene Pitney - For The First Time !
DYEAR=1965
DGENRE=Country
TTITLE0=Why Baby Why
TTITLE1=Someday You'll Want Me To Want You
TTITLE2=For Me This Is Happy
TTITLE3=That's All It Took
TTITLE4=I'm Gonna Listen To Me
TTITLE5=I'm A Fool To Care
TTITLE6=As Long As I Live
TTITLE7=Born to Lose
TTITLE8=I'm Up To My Neck In I.O.U.'s
TTITLE9=Sweeter Than Flowers
EXTD=
EXTT0=
EXTT1=
EXTT2=
EXTT3=
EXTT4=
EXTT5=
EXTT6=
EXTT7=
EXTT8=
EXTT9=
PLAYORDER=
